<svg width="294" height="71" viewBox="0 0 294 71" fill="none" xmlns="http://www.w3.org/2000/svg">
<path d="M35.7337 15.8438C36.4212 14.5729 37.265 13.3542 38.265 12.1875C39.2858 11 40.4004 9.89583 41.6087 8.875C39.7754 8.70833 37.9421 8.46875 36.1087 8.15625C34.2962 7.82292 32.515 7.5 30.765 7.1875C29.015 6.875 27.3067 6.60417 25.64 6.375C23.9733 6.14583 22.3796 6.03125 20.8587 6.03125C18.9212 6.03125 17.2858 6.22917 15.9525 6.625C14.64 7.02083 13.5775 7.54167 12.765 8.1875C11.9733 8.83333 11.4004 9.5625 11.0462 10.375C10.6921 11.1667 10.515 11.9792 10.515 12.8125C10.515 13.6042 10.6608 14.3646 10.9525 15.0938C11.2442 15.8021 11.6712 16.4375 12.2337 17C12.7962 17.5417 13.4942 17.9792 14.3275 18.3125C15.1608 18.6458 16.1296 18.8125 17.2337 18.8125C17.8587 18.8125 18.5254 18.7604 19.2337 18.6562C19.9421 18.5521 20.6504 18.4062 21.3587 18.2188C22.0879 18.0104 22.7962 17.7708 23.4837 17.5C24.1712 17.2292 24.7962 16.9271 25.3587 16.5938L25.9837 17.3438C25.2962 17.7396 24.5775 18.0938 23.8275 18.4062C23.0775 18.6979 22.3171 18.9583 21.5462 19.1875C20.7962 19.3958 20.0358 19.5625 19.265 19.6875C18.515 19.7917 17.7962 19.8438 17.1087 19.8438C15.8587 19.8438 14.7442 19.6667 13.765 19.3125C12.8067 18.9375 11.9837 18.4375 11.2962 17.8125C10.6296 17.1667 10.1192 16.4167 9.765 15.5625C9.41083 14.7083 9.23375 13.7917 9.23375 12.8125C9.23375 11.5 9.54625 10.2917 10.1712 9.1875C10.7962 8.0625 11.7129 7.09375 12.9212 6.28125C14.1504 5.46875 15.6712 4.83333 17.4837 4.375C19.3171 3.91667 21.4212 3.6875 23.7962 3.6875C25.5671 3.6875 27.3379 3.80208 29.1087 4.03125C30.9004 4.26042 32.7025 4.52083 34.515 4.8125C36.3275 5.08333 38.1608 5.34375 40.015 5.59375C41.8692 5.84375 43.765 6 45.7025 6.0625C47.3692 5.125 49.0775 4.38542 50.8275 3.84375C52.5983 3.28125 54.3692 3 56.14 3C57.0358 3 57.64 3.08333 57.9525 3.25C58.2858 3.41667 58.4525 3.72917 58.4525 4.1875C58.4525 4.875 58.1296 5.52083 57.4837 6.125C56.8379 6.70833 55.9421 7.21875 54.7962 7.65625C53.6504 8.09375 52.3067 8.4375 50.765 8.6875C49.2233 8.9375 47.5462 9.0625 45.7337 9.0625C45.4421 9.0625 45.14 9.0625 44.8275 9.0625C44.5358 9.0625 44.2442 9.05208 43.9525 9.03125C43.3692 9.61458 42.8796 10.2083 42.4837 10.8125C42.2962 11.0833 42.1087 11.3958 41.9212 11.75C41.7546 12.0833 41.5462 12.5208 41.2962 13.0625C41.0671 13.6042 40.7962 14.2708 40.4837 15.0625C40.1712 15.8333 39.7962 16.8021 39.3587 17.9688C38.9421 19.1354 38.4317 20.5208 37.8275 22.125C37.2442 23.7083 36.5671 25.5729 35.7962 27.7188H44.9212V28.9688H35.3587C33.7337 33.5521 31.9942 37.5 30.14 40.8125C28.2858 44.125 26.3275 46.8542 24.265 49C22.2025 51.125 20.0567 52.6979 17.8275 53.7188C15.5983 54.7188 13.2962 55.2188 10.9212 55.2188C9.37958 55.2188 7.94208 55.0208 6.60875 54.625C5.29625 54.2292 4.15042 53.6458 3.17125 52.875C2.21292 52.0833 1.4525 51.1146 0.889999 49.9688C0.327499 48.8229 0.0462494 47.5 0.0462494 46C0.0462494 45 0.160833 44.0417 0.389999 43.125C0.639999 42.2083 0.973333 41.4062 1.39 40.7188C1.8275 40.0104 2.3275 39.4479 2.89 39.0312C3.47333 38.5938 4.09833 38.375 4.765 38.375C5.2025 38.375 5.5775 38.4896 5.89 38.7188C6.2025 38.9271 6.35875 39.3229 6.35875 39.9062C6.35875 40.3854 6.23375 40.7708 5.98375 41.0625C5.75458 41.3333 5.46292 41.5729 5.10875 41.7812C4.75458 41.9688 4.35875 42.1667 3.92125 42.375C3.50458 42.5625 3.11917 42.8229 2.765 43.1562C2.41083 43.4688 2.10875 43.8854 1.85875 44.4062C1.62958 44.9271 1.515 45.6146 1.515 46.4688C1.515 47.6562 1.73375 48.7188 2.17125 49.6562C2.60875 50.5938 3.23375 51.3958 4.04625 52.0625C4.85875 52.7083 5.84833 53.2083 7.015 53.5625C8.2025 53.9167 9.53583 54.0938 11.015 54.0938C12.1192 54.0938 13.1608 53.9792 14.14 53.75C15.1192 53.5208 16.0671 53.125 16.9837 52.5625C17.9004 51.9792 18.7962 51.2083 19.6712 50.25C20.5462 49.2708 21.4317 48.0417 22.3275 46.5625C23.2442 45.0625 24.1817 43.2812 25.14 41.2188C26.1192 39.1562 27.1608 36.75 28.265 34C28.64 33.0625 28.9837 32.1771 29.2962 31.3438C29.6296 30.5104 29.9421 29.7188 30.2337 28.9688H21.7962V27.7188H30.7025C31.5358 25.6354 32.2129 23.9271 32.7337 22.5938C33.2754 21.2604 33.7233 20.1667 34.0775 19.3125C34.4525 18.4583 34.7546 17.7812 34.9837 17.2812C35.2337 16.7604 35.4837 16.2812 35.7337 15.8438ZM55.9837 3.875C54.6712 3.875 53.3379 4.07292 51.9837 4.46875C50.6296 4.86458 49.3275 5.39583 48.0775 6.0625C49.265 6.04167 50.4108 5.96875 51.515 5.84375C52.64 5.71875 53.6296 5.57292 54.4837 5.40625C55.3587 5.23958 56.0567 5.0625 56.5775 4.875C57.1192 4.66667 57.39 4.45833 57.39 4.25C57.39 4 56.9212 3.875 55.9837 3.875ZM63.725 0.5H68.3812L54.4125 38.8438C54.1208 39.6562 53.8292 40.4896 53.5375 41.3438C53.2458 42.1771 52.9854 43.0104 52.7562 43.8438C52.5479 44.6562 52.3708 45.4479 52.225 46.2188C52.1 46.9688 52.0375 47.6667 52.0375 48.3125C52.0375 49.75 52.4125 50.8958 53.1625 51.75C53.9333 52.6042 55.1208 53.0312 56.725 53.0312C58.1208 53.0312 59.4646 52.7292 60.7562 52.125C62.0687 51.5208 63.3604 50.6146 64.6312 49.4062C65.9229 48.1771 67.2146 46.6458 68.5062 44.8125C69.7979 42.9583 71.1417 40.8021 72.5375 38.3438L74.1625 35.4688L75.0062 36.0625L73.3812 38.9375C71.8604 41.625 70.4021 43.9583 69.0062 45.9375C67.6312 47.8958 66.2458 49.5208 64.85 50.8125C63.475 52.0833 62.0687 53.0312 60.6312 53.6562C59.1937 54.2812 57.6625 54.5938 56.0375 54.5938C54.7667 54.5938 53.6417 54.3958 52.6625 54C51.7042 53.625 50.9021 53.0833 50.2562 52.375C49.5896 51.6667 49.0896 50.8125 48.7562 49.8125C48.4229 48.8125 48.2562 47.6979 48.2562 46.4688C48.2562 45.3854 48.3812 44.2083 48.6312 42.9375C48.8812 41.6458 49.2667 40.2812 49.7875 38.8438L63.725 0.5ZM80.7162 16.9688H85.3412L77.3725 38.8438C77.0808 39.6562 76.7892 40.4896 76.4975 41.3438C76.2058 42.1771 75.9454 43.0104 75.7162 43.8438C75.5079 44.6562 75.3308 45.4479 75.185 46.2188C75.06 46.9688 74.9975 47.6667 74.9975 48.3125C74.9975 49.75 75.3725 50.8958 76.1225 51.75C76.8933 52.6042 78.0808 53.0312 79.685 53.0312C81.0808 53.0312 82.4246 52.7292 83.7162 52.125C85.0287 51.5208 86.3204 50.6146 87.5912 49.4062C88.8829 48.1771 90.1746 46.6458 91.4662 44.8125C92.7579 42.9583 94.1017 40.8021 95.4975 38.3438L97.1225 35.4688L97.9662 36.0625L96.3412 38.9375C94.8204 41.625 93.3621 43.9583 91.9662 45.9375C90.5912 47.8958 89.2058 49.5208 87.81 50.8125C86.435 52.0833 85.0287 53.0312 83.5912 53.6562C82.1537 54.2812 80.6225 54.5938 78.9975 54.5938C77.7267 54.5938 76.6017 54.3958 75.6225 54C74.6642 53.625 73.8621 53.0833 73.2162 52.375C72.5496 51.6667 72.0496 50.8125 71.7162 49.8125C71.3829 48.8125 71.2162 47.6979 71.2162 46.4688C71.2162 45.3854 71.3517 44.1979 71.6225 42.9062C71.8725 41.6146 72.2475 40.2604 72.7475 38.8438L80.7162 16.9688ZM83.2162 8.78125C83.2162 8.05208 83.4662 7.42708 83.9662 6.90625C84.4871 6.38542 85.1121 6.125 85.8412 6.125C86.5704 6.125 87.185 6.38542 87.685 6.90625C88.2058 7.40625 88.4662 8.02083 88.4662 8.75C88.4662 9.10417 88.3933 9.44792 88.2475 9.78125C88.1225 10.0938 87.935 10.3646 87.685 10.5938C87.4558 10.8229 87.1746 11.0104 86.8412 11.1562C86.5287 11.2812 86.185 11.3438 85.81 11.3438C85.0808 11.3438 84.4662 11.1042 83.9662 10.625C83.4662 10.125 83.2162 9.51042 83.2162 8.78125ZM104.114 15.9375H108.739L103.707 29.7188C106.374 25.2604 109.02 21.9271 111.645 19.7188C114.291 17.4896 116.978 16.375 119.707 16.375C120.978 16.375 122.072 16.6146 122.989 17.0938C123.905 17.5729 124.655 18.2292 125.239 19.0625C125.822 19.8958 126.249 20.8854 126.52 22.0312C126.791 23.1562 126.926 24.375 126.926 25.6875C126.926 27.0833 126.78 28.6146 126.489 30.2812C126.218 31.9271 125.812 33.5729 125.27 35.2188C124.207 38.4688 122.822 41.3021 121.114 43.7188C119.426 46.1354 117.572 48.1562 115.551 49.7812C113.551 51.3854 111.478 52.5938 109.332 53.4062C107.187 54.1979 105.135 54.5938 103.176 54.5938C102.114 54.5938 101.197 54.4688 100.426 54.2188C99.6762 53.9688 99.0617 53.5729 98.5825 53.0312C98.1033 52.4896 97.7387 51.7917 97.4887 50.9375C97.2387 50.0833 97.1033 49.0625 97.0825 47.875L88.8637 70.4688H84.2387L104.114 15.9375ZM118.645 17.9375C117.541 17.9375 116.395 18.2604 115.207 18.9062C114.041 19.5312 112.874 20.3854 111.707 21.4688C110.541 22.5521 109.395 23.8125 108.27 25.25C107.166 26.6875 106.114 28.2188 105.114 29.8438C104.114 31.4688 103.187 33.1354 102.332 34.8438C101.499 36.5521 100.78 38.2188 100.176 39.8438C99.5721 41.4479 99.0929 42.9688 98.7387 44.4062C98.4054 45.8438 98.2387 47.0938 98.2387 48.1562C98.2387 48.8854 98.3221 49.5729 98.4887 50.2188C98.6554 50.8438 98.9158 51.3958 99.27 51.875C99.645 52.3333 100.103 52.6979 100.645 52.9688C101.207 53.2188 101.874 53.3438 102.645 53.3438C103.645 53.3438 104.843 53.0729 106.239 52.5312C107.655 51.9688 109.135 51.0104 110.676 49.6562C112.239 48.3021 113.801 46.4792 115.364 44.1875C116.947 41.8958 118.405 39.0104 119.739 35.5312C120.197 34.3438 120.603 33.1667 120.957 32C121.312 30.8333 121.614 29.7188 121.864 28.6562C122.114 27.5729 122.301 26.5625 122.426 25.625C122.572 24.6875 122.645 23.8542 122.645 23.125C122.645 21.5208 122.322 20.2604 121.676 19.3438C121.03 18.4062 120.02 17.9375 118.645 17.9375ZM171.199 15.8438C171.886 14.5729 172.73 13.3542 173.73 12.1875C174.751 11 175.865 9.89583 177.074 8.875C175.24 8.70833 173.407 8.46875 171.574 8.15625C169.761 7.82292 167.98 7.5 166.23 7.1875C164.48 6.875 162.772 6.60417 161.105 6.375C159.438 6.14583 157.845 6.03125 156.324 6.03125C154.386 6.03125 152.751 6.22917 151.417 6.625C150.105 7.02083 149.042 7.54167 148.23 8.1875C147.438 8.83333 146.865 9.5625 146.511 10.375C146.157 11.1667 145.98 11.9792 145.98 12.8125C145.98 13.6042 146.126 14.3646 146.417 15.0938C146.709 15.8021 147.136 16.4375 147.699 17C148.261 17.5417 148.959 17.9792 149.792 18.3125C150.626 18.6458 151.595 18.8125 152.699 18.8125C153.324 18.8125 153.99 18.7604 154.699 18.6562C155.407 18.5521 156.115 18.4062 156.824 18.2188C157.553 18.0104 158.261 17.7708 158.949 17.5C159.636 17.2292 160.261 16.9271 160.824 16.5938L161.449 17.3438C160.761 17.7396 160.042 18.0938 159.292 18.4062C158.542 18.6979 157.782 18.9583 157.011 19.1875C156.261 19.3958 155.501 19.5625 154.73 19.6875C153.98 19.7917 153.261 19.8438 152.574 19.8438C151.324 19.8438 150.209 19.6667 149.23 19.3125C148.272 18.9375 147.449 18.4375 146.761 17.8125C146.095 17.1667 145.584 16.4167 145.23 15.5625C144.876 14.7083 144.699 13.7917 144.699 12.8125C144.699 11.5 145.011 10.2917 145.636 9.1875C146.261 8.0625 147.178 7.09375 148.386 6.28125C149.615 5.46875 151.136 4.83333 152.949 4.375C154.782 3.91667 156.886 3.6875 159.261 3.6875C161.032 3.6875 162.803 3.80208 164.574 4.03125C166.365 4.26042 168.167 4.52083 169.98 4.8125C171.792 5.08333 173.626 5.34375 175.48 5.59375C177.334 5.84375 179.23 6 181.167 6.0625C182.834 5.125 184.542 4.38542 186.292 3.84375C188.063 3.28125 189.834 3 191.605 3C192.501 3 193.105 3.08333 193.417 3.25C193.751 3.41667 193.917 3.72917 193.917 4.1875C193.917 4.875 193.595 5.52083 192.949 6.125C192.303 6.70833 191.407 7.21875 190.261 7.65625C189.115 8.09375 187.772 8.4375 186.23 8.6875C184.688 8.9375 183.011 9.0625 181.199 9.0625C180.907 9.0625 180.605 9.0625 180.292 9.0625C180.001 9.0625 179.709 9.05208 179.417 9.03125C178.834 9.61458 178.345 10.2083 177.949 10.8125C177.761 11.0833 177.574 11.3958 177.386 11.75C177.22 12.0833 177.011 12.5208 176.761 13.0625C176.532 13.6042 176.261 14.2708 175.949 15.0625C175.636 15.8333 175.261 16.8021 174.824 17.9688C174.407 19.1354 173.897 20.5208 173.292 22.125C172.709 23.7083 172.032 25.5729 171.261 27.7188H180.386V28.9688H170.824C169.199 33.5521 167.459 37.5 165.605 40.8125C163.751 44.125 161.792 46.8542 159.73 49C157.667 51.125 155.522 52.6979 153.292 53.7188C151.063 54.7188 148.761 55.2188 146.386 55.2188C144.845 55.2188 143.407 55.0208 142.074 54.625C140.761 54.2292 139.615 53.6458 138.636 52.875C137.678 52.0833 136.917 51.1146 136.355 49.9688C135.792 48.8229 135.511 47.5 135.511 46C135.511 45 135.626 44.0417 135.855 43.125C136.105 42.2083 136.438 41.4062 136.855 40.7188C137.292 40.0104 137.792 39.4479 138.355 39.0312C138.938 38.5938 139.563 38.375 140.23 38.375C140.667 38.375 141.042 38.4896 141.355 38.7188C141.667 38.9271 141.824 39.3229 141.824 39.9062C141.824 40.3854 141.699 40.7708 141.449 41.0625C141.22 41.3333 140.928 41.5729 140.574 41.7812C140.22 41.9688 139.824 42.1667 139.386 42.375C138.97 42.5625 138.584 42.8229 138.23 43.1562C137.876 43.4688 137.574 43.8854 137.324 44.4062C137.095 44.9271 136.98 45.6146 136.98 46.4688C136.98 47.6562 137.199 48.7188 137.636 49.6562C138.074 50.5938 138.699 51.3958 139.511 52.0625C140.324 52.7083 141.313 53.2083 142.48 53.5625C143.667 53.9167 145.001 54.0938 146.48 54.0938C147.584 54.0938 148.626 53.9792 149.605 53.75C150.584 53.5208 151.532 53.125 152.449 52.5625C153.365 51.9792 154.261 51.2083 155.136 50.25C156.011 49.2708 156.897 48.0417 157.792 46.5625C158.709 45.0625 159.647 43.2812 160.605 41.2188C161.584 39.1562 162.626 36.75 163.73 34C164.105 33.0625 164.449 32.1771 164.761 31.3438C165.095 30.5104 165.407 29.7188 165.699 28.9688H157.261V27.7188H166.167C167.001 25.6354 167.678 23.9271 168.199 22.5938C168.74 21.2604 169.188 20.1667 169.542 19.3125C169.917 18.4583 170.22 17.7812 170.449 17.2812C170.699 16.7604 170.949 16.2812 171.199 15.8438ZM191.449 3.875C190.136 3.875 188.803 4.07292 187.449 4.46875C186.095 4.86458 184.792 5.39583 183.542 6.0625C184.73 6.04167 185.876 5.96875 186.98 5.84375C188.105 5.71875 189.095 5.57292 189.949 5.40625C190.824 5.23958 191.522 5.0625 192.042 4.875C192.584 4.66667 192.855 4.45833 192.855 4.25C192.855 4 192.386 3.875 191.449 3.875ZM199.19 0.5H203.846L189.878 38.8438C189.586 39.6562 189.294 40.4896 189.003 41.3438C188.711 42.1771 188.45 43.0104 188.221 43.8438C188.013 44.6562 187.836 45.4479 187.69 46.2188C187.565 46.9688 187.503 47.6667 187.503 48.3125C187.503 49.75 187.878 50.8958 188.628 51.75C189.398 52.6042 190.586 53.0312 192.19 53.0312C193.586 53.0312 194.93 52.7292 196.221 52.125C197.534 51.5208 198.825 50.6146 200.096 49.4062C201.388 48.1771 202.68 46.6458 203.971 44.8125C205.263 42.9583 206.607 40.8021 208.003 38.3438L209.628 35.4688L210.471 36.0625L208.846 38.9375C207.325 41.625 205.867 43.9583 204.471 45.9375C203.096 47.8958 201.711 49.5208 200.315 50.8125C198.94 52.0833 197.534 53.0312 196.096 53.6562C194.659 54.2812 193.128 54.5938 191.503 54.5938C190.232 54.5938 189.107 54.3958 188.128 54C187.169 53.625 186.367 53.0833 185.721 52.375C185.055 51.6667 184.555 50.8125 184.221 49.8125C183.888 48.8125 183.721 47.6979 183.721 46.4688C183.721 45.3854 183.846 44.2083 184.096 42.9375C184.346 41.6458 184.732 40.2812 185.253 38.8438L199.19 0.5ZM209.181 35.8438C209.91 33.0521 210.973 30.4688 212.369 28.0938C213.785 25.7188 215.4 23.6667 217.212 21.9375C219.046 20.1875 221.025 18.8229 223.15 17.8438C225.296 16.8646 227.452 16.375 229.619 16.375C231.369 16.375 232.837 16.6771 234.025 17.2812C235.233 17.8646 236.202 18.6562 236.931 19.6562C237.66 20.6562 238.181 21.8125 238.494 23.125C238.806 24.4375 238.962 25.8125 238.962 27.25C238.962 28.8125 238.806 30.375 238.494 31.9375C238.202 33.5 237.817 34.9896 237.337 36.4062C237.046 37.3021 236.712 38.1667 236.337 39C235.962 39.8333 235.567 40.6458 235.15 41.4375C235.442 42.125 235.869 42.6875 236.431 43.125C236.994 43.5417 237.775 43.75 238.775 43.75C239.358 43.75 239.983 43.6562 240.65 43.4688C241.317 43.2812 241.983 42.9792 242.65 42.5625C243.337 42.125 244.004 41.5625 244.65 40.875C245.317 40.1875 245.931 39.3438 246.494 38.3438L248.119 35.4688L248.962 36.0625L247.337 38.9375C246.546 40.3333 245.733 41.4375 244.9 42.25C244.087 43.0417 243.296 43.6458 242.525 44.0625C241.754 44.4792 241.025 44.75 240.337 44.875C239.671 44.9792 239.098 45.0312 238.619 45.0312C237.64 45.0312 236.765 44.9062 235.994 44.6562C235.223 44.3854 234.535 44.0312 233.931 43.5938C232.89 45.2604 231.733 46.7708 230.462 48.125C229.212 49.4792 227.89 50.6354 226.494 51.5938C225.098 52.5521 223.65 53.2917 222.15 53.8125C220.671 54.3333 219.192 54.5938 217.712 54.5938C216.233 54.5938 214.9 54.3333 213.712 53.8125C212.546 53.2708 211.556 52.5 210.744 51.5C209.931 50.5 209.306 49.2812 208.869 47.8438C208.431 46.3854 208.212 44.75 208.212 42.9375C208.212 41.7917 208.296 40.625 208.462 39.4375C208.629 38.2292 208.869 37.0312 209.181 35.8438ZM218.181 53.0312C219.39 53.0312 220.608 52.7604 221.837 52.2188C223.087 51.6562 224.306 50.8646 225.494 49.8438C226.702 48.8229 227.858 47.5938 228.962 46.1562C230.087 44.6979 231.119 43.0833 232.056 41.3125C231.806 40.8333 231.619 40.3438 231.494 39.8438C231.39 39.3229 231.337 38.7917 231.337 38.25C231.337 37.6458 231.421 37.0521 231.587 36.4688C231.754 35.8646 232.004 35.3125 232.337 34.8125C232.692 34.2917 233.129 33.8229 233.65 33.4062C234.192 32.9896 234.817 32.6562 235.525 32.4062C235.837 31.2396 236.098 30.0312 236.306 28.7812C236.515 27.5104 236.619 26.2604 236.619 25.0312C236.619 24.0312 236.525 23.0833 236.337 22.1875C236.15 21.2708 235.827 20.4792 235.369 19.8125C234.931 19.1458 234.327 18.6146 233.556 18.2188C232.806 17.8229 231.869 17.625 230.744 17.625C229.119 17.625 227.504 18.0625 225.9 18.9375C224.317 19.7917 222.806 21.0104 221.369 22.5938C219.952 24.1562 218.66 26.0312 217.494 28.2188C216.327 30.4062 215.358 32.8229 214.587 35.4688C214.067 37.2396 213.66 39.0208 213.369 40.8125C213.098 42.5833 212.962 44.1979 212.962 45.6562C212.962 50.5729 214.702 53.0312 218.181 53.0312ZM272.016 38.8438C271.204 41.0938 270.6 42.9792 270.204 44.5C269.829 46.0208 269.641 47.2917 269.641 48.3125C269.641 49.8125 269.985 50.9792 270.672 51.8125C271.381 52.625 272.391 53.0312 273.704 53.0312C275.016 53.0312 276.36 52.6667 277.735 51.9375C279.11 51.1875 280.443 50.1667 281.735 48.875C283.027 47.5625 284.235 46.0208 285.36 44.25C286.485 42.4583 287.464 40.5208 288.297 38.4375C289.068 36.4792 289.683 34.4792 290.141 32.4375C290.62 30.3958 290.86 28.2812 290.86 26.0938C290.86 24.5104 290.756 23.25 290.547 22.3125C290.36 21.3542 290.141 20.5938 289.891 20.0312C289.641 19.4688 289.412 19.0417 289.204 18.75C289.016 18.4375 288.922 18.1354 288.922 17.8438C288.922 17.4688 289.079 17.1354 289.391 16.8438C289.725 16.5521 290.1 16.4062 290.516 16.4062C290.975 16.4062 291.36 16.5938 291.672 16.9688C292.006 17.3438 292.277 17.8542 292.485 18.5C292.693 19.1458 292.85 19.9062 292.954 20.7812C293.058 21.6562 293.11 22.5833 293.11 23.5625C293.11 24.9792 293.006 26.3854 292.797 27.7812C292.61 29.1562 292.35 30.5 292.016 31.8125C291.683 33.125 291.297 34.3958 290.86 35.625C290.422 36.8333 289.975 37.9688 289.516 39.0312C288.537 41.3021 287.412 43.3958 286.141 45.3125C284.891 47.2083 283.537 48.8438 282.079 50.2188C280.641 51.5938 279.141 52.6667 277.579 53.4375C276.016 54.2083 274.443 54.5938 272.86 54.5938C271.756 54.5938 270.766 54.3958 269.891 54C269.037 53.625 268.308 53.0833 267.704 52.375C267.1 51.6667 266.641 50.8125 266.329 49.8125C266.016 48.8125 265.86 47.6979 265.86 46.4688C265.86 46.1771 265.87 45.8646 265.891 45.5312C265.912 45.1979 265.943 44.8542 265.985 44.5C265.027 46.0417 263.995 47.4375 262.891 48.6875C261.808 49.9167 260.672 50.9688 259.485 51.8438C258.318 52.7188 257.11 53.3958 255.86 53.875C254.631 54.3542 253.402 54.5938 252.172 54.5938C251.068 54.5938 250.079 54.3958 249.204 54C248.35 53.625 247.62 53.0833 247.016 52.375C246.412 51.6667 245.954 50.8125 245.641 49.8125C245.329 48.8125 245.172 47.6979 245.172 46.4688C245.172 45.4062 245.308 44.2292 245.579 42.9375C245.829 41.625 246.204 40.2604 246.704 38.8438L254.641 16.9688H259.266L251.329 38.8438C250.516 41.0938 249.912 42.9792 249.516 44.5C249.141 46.0208 248.954 47.2917 248.954 48.3125C248.954 49.8125 249.297 50.9792 249.985 51.8125C250.693 52.625 251.704 53.0312 253.016 53.0312C254.287 53.0312 255.62 52.6562 257.016 51.9062C258.412 51.1562 259.756 50.1458 261.047 48.875C262.36 47.5833 263.568 46.0729 264.672 44.3438C265.777 42.6146 266.683 40.7812 267.391 38.8438L275.297 16.9688H279.922L272.016 38.8438Z" fill="#111010"/>
</svg>
